<svg xmlns="http://www.w3.org/2000/svg" viewBox="3 3 35 35" role="img" aria-label="PulseMesh app download QR code"><rect fill="#FFFFFF" x="3" y="3" width="35" height="35" shape-rendering="crispEdges"/><path fill="#000000" d="M4 4h7v1H4zM12 4h3v1H12zM16 4h1v1H16zM18 4h1v1H18zM22 4h2v1H22zM25 4h1v1H25zM27 4h2v1H27zM30,4 h7v1H30zM4 5h1v1H4zM10 5h1v1H10zM12 5h1v1H12zM15 5h1v1H15zM18 5h3v1H18zM22 5h2v1H22zM25 5h2v1H25zM28 5h1v1H28zM30 5h1v1H30zM36,5 h1v1H36zM4 6h1v1H4zM6 6h3v1H6zM10 6h1v1H10zM12 6h3v1H12zM16 6h1v1H16zM18 6h1v1H18zM21 6h2v1H21zM24 6h5v1H24zM30 6h1v1H30zM32 6h3v1H32zM36,6 h1v1H36zM4 7h1v1H4zM6 7h3v1H6zM10 7h1v1H10zM16 7h1v1H16zM18 7h1v1H18zM20 7h2v1H20zM23 7h2v1H23zM26 7h2v1H26zM30 7h1v1H30zM32 7h3v1H32zM36,7 h1v1H36zM4 8h1v1H4zM6 8h3v1H6zM10 8h1v1H10zM13 8h1v1H13zM15 8h2v1H15zM19 8h5v1H19zM26 8h2v1H26zM30 8h1v1H30zM32 8h3v1H32zM36,8 h1v1H36zM4 9h1v1H4zM10 9h1v1H10zM12 9h2v1H12zM16 9h3v1H16zM20 9h6v1H20zM28 9h1v1H28zM30 9h1v1H30zM36,9 h1v1H36zM4 10h7v1H4zM12 10h1v1H12zM14 10h1v1H14zM16 10h1v1H16zM18 10h1v1H18zM20 10h1v1H20zM22 10h1v1H22zM24 10h1v1H24zM26 10h1v1H26zM28 10h1v1H28zM30,10 h7v1H30zM12 11h6v1H12zM19 11h1v1H19zM21 11h5v1H21zM27 11h2v1H27zM6 12h3v1H6zM10 12h1v1H10zM12 12h2v1H12zM15 12h2v1H15zM22 12h1v1H22zM24 12h1v1H24zM29 12h3v1H29zM34,12 h3v1H34zM4 13h2v1H4zM7 13h1v1H7zM11 13h2v1H11zM15 13h1v1H15zM17 13h2v1H17zM21 13h1v1H21zM25 13h6v1H25zM33 13h1v1H33zM35,13 h2v1H35zM5 14h6v1H5zM13 14h1v1H13zM17 14h1v1H17zM22 14h1v1H22zM25 14h2v1H25zM31 14h1v1H31zM35 14h1v1H35zM4 15h1v1H4zM8 15h1v1H8zM11 15h1v1H11zM14 15h1v1H14zM16 15h3v1H16zM21 15h5v1H21zM27 15h1v1H27zM29 15h2v1H29zM33 15h2v1H33zM5 16h2v1H5zM8 16h3v1H8zM12 16h2v1H12zM16 16h4v1H16zM21 16h2v1H21zM24 16h2v1H24zM27 16h3v1H27zM31 16h2v1H31zM4 17h4v1H4zM9 17h1v1H9zM12 17h2v1H12zM23 17h1v1H23zM27 17h1v1H27zM30 17h1v1H30zM34 17h1v1H34zM36,17 h1v1H36zM4 18h1v1H4zM6 18h5v1H6zM13 18h1v1H13zM16 18h5v1H16zM22 18h2v1H22zM26 18h1v1H26zM29 18h2v1H29zM32 18h1v1H32zM35 18h1v1H35zM4 19h2v1H4zM7 19h3v1H7zM11 19h1v1H11zM13 19h3v1H13zM18 19h1v1H18zM21 19h2v1H21zM24 19h3v1H24zM29 19h3v1H29zM34 19h2v1H34zM4 20h1v1H4zM6 20h1v1H6zM10 20h2v1H10zM14 20h1v1H14zM17 20h4v1H17zM22 20h1v1H22zM27 20h1v1H27zM29 20h1v1H29zM31 20h2v1H31zM4 21h6v1H4zM12 21h2v1H12zM18 21h1v1H18zM20 21h4v1H20zM25 21h1v1H25zM27 21h2v1H27zM30 21h2v1H30zM35,21 h2v1H35zM4 22h2v1H4zM8 22h1v1H8zM10 22h1v1H10zM13 22h2v1H13zM16 22h4v1H16zM21 22h2v1H21zM24 22h1v1H24zM29 22h2v1H29zM32 22h1v1H32zM34 22h1v1H34zM4 23h2v1H4zM7 23h1v1H7zM12 23h2v1H12zM16 23h1v1H16zM21 23h9v1H21zM32 23h3v1H32zM36,23 h1v1H36zM5 24h2v1H5zM8 24h1v1H8zM10 24h3v1H10zM14 24h4v1H14zM19 24h1v1H19zM21 24h3v1H21zM26 24h1v1H26zM29 24h1v1H29zM32 24h2v1H32zM4 25h2v1H4zM9 25h1v1H9zM11 25h1v1H11zM13 25h1v1H13zM15 25h2v1H15zM21 25h1v1H21zM27 25h1v1H27zM30 25h1v1H30zM33 25h2v1H33zM36,25 h1v1H36zM4 26h1v1H4zM7 26h1v1H7zM9 26h2v1H9zM17 26h2v1H17zM23 26h3v1H23zM31 26h1v1H31zM33 26h2v1H33zM4 27h1v1H4zM7 27h2v1H7zM11 27h1v1H11zM13 27h1v1H13zM20 27h1v1H20zM22 27h2v1H22zM25 27h1v1H25zM28 27h1v1H28zM32 27h3v1H32zM4 28h1v1H4zM6 28h2v1H6zM10 28h3v1H10zM16 28h1v1H16zM18 28h4v1H18zM25 28h2v1H25zM28 28h5v1H28zM36,28 h1v1H36zM12 29h1v1H12zM14 29h5v1H14zM21 29h3v1H21zM26 29h1v1H26zM28 29h1v1H28zM32 29h1v1H32zM35,29 h2v1H35zM4 30h7v1H4zM15 30h2v1H15zM19 30h1v1H19zM22 30h3v1H22zM26 30h3v1H26zM30 30h1v1H30zM32 30h4v1H32zM4 31h1v1H4zM10 31h1v1H10zM13 31h1v1H13zM15 31h5v1H15zM22 31h1v1H22zM24 31h1v1H24zM28 31h1v1H28zM32,31 h5v1H32zM4 32h1v1H4zM6 32h3v1H6zM10 32h1v1H10zM12 32h1v1H12zM14 32h4v1H14zM19 32h2v1H19zM23 32h4v1H23zM28 32h5v1H28zM35,32 h2v1H35zM4 33h1v1H4zM6 33h3v1H6zM10 33h1v1H10zM12 33h5v1H12zM18 33h2v1H18zM25 33h1v1H25zM28 33h2v1H28zM32 33h2v1H32zM36,33 h1v1H36zM4 34h1v1H4zM6 34h3v1H6zM10 34h1v1H10zM12 34h5v1H12zM18 34h1v1H18zM20 34h1v1H20zM22 34h1v1H22zM24 34h7v1H24zM33 34h1v1H33zM4 35h1v1H4zM10 35h1v1H10zM13 35h6v1H13zM20 35h4v1H20zM29 35h1v1H29zM31 35h1v1H31zM33 35h2v1H33zM4 36h7v1H4zM13 36h1v1H13zM15 36h1v1H15zM18 36h2v1H18zM21 36h1v1H21zM23 36h2v1H23zM27 36h3v1H27zM33 36h1v1H33zM35 36h1v1H35z" shape-rendering="crispEdges"/></svg>